<svg width="20" height="20" viewBox="0 0 20 20" fill="none" xmlns="http://www.w3.org/2000/svg">
<path d="M13.0476 10C13.0476 10.6028 12.8689 11.192 12.534 11.6932C12.1991 12.1944 11.7232 12.585 11.1663 12.8156C10.6094 13.0463 9.99663 13.1067 9.40545 12.9891C8.81427 12.8715 8.27123 12.5812 7.84501 12.155C7.4188 11.7288 7.12854 11.1857 7.01095 10.5946C6.89335 10.0034 6.95371 9.39061 7.18437 8.83373C7.41504 8.27685 7.80566 7.80088 8.30684 7.466C8.80802 7.13113 9.39724 6.95239 10 6.95239C10.808 6.95331 11.5826 7.2747 12.154 7.84604C12.7253 8.41737 13.0467 9.19201 13.0476 10ZM19.5238 5.80953V14.1905C19.5222 15.6045 18.9598 16.9601 17.96 17.96C16.9601 18.9598 15.6045 19.5222 14.1905 19.5238H5.80953C4.39553 19.5222 3.03991 18.9598 2.04006 17.96C1.04022 16.9601 0.477798 15.6045 0.476196 14.1905V5.80953C0.477798 4.39553 1.04022 3.03991 2.04006 2.04006C3.03991 1.04022 4.39553 0.477798 5.80953 0.476196H14.1905C15.6045 0.477798 16.9601 1.04022 17.96 2.04006C18.9598 3.03991 19.5222 4.39553 19.5238 5.80953ZM14.5714 10C14.5714 9.09586 14.3033 8.21202 13.801 7.46026C13.2987 6.70849 12.5847 6.12256 11.7494 5.77656C10.9141 5.43056 9.99494 5.34003 9.10816 5.51642C8.2214 5.69281 7.40684 6.12819 6.76752 6.76752C6.12819 7.40684 5.69281 8.2214 5.51642 9.10816C5.34003 9.99494 5.43056 10.9141 5.77656 11.7494C6.12256 12.5847 6.70849 13.2987 7.46026 13.801C8.21202 14.3033 9.09586 14.5714 10 14.5714C11.212 14.5701 12.374 14.088 13.231 13.231C14.088 12.374 14.5701 11.212 14.5714 10ZM16.0952 5.04763C16.0952 4.82159 16.0282 4.60063 15.9026 4.41269C15.7771 4.22475 15.5986 4.07826 15.3897 3.99176C15.1809 3.90526 14.9511 3.88263 14.7294 3.92673C14.5077 3.97083 14.3041 4.07967 14.1443 4.2395C13.9844 4.39933 13.8756 4.60297 13.8315 4.82466C13.7874 5.04636 13.81 5.27615 13.8965 5.48498C13.983 5.69381 14.1295 5.8723 14.3175 5.99788C14.5054 6.12346 14.7264 6.19048 14.9524 6.19048C15.2555 6.19048 15.5462 6.07008 15.7605 5.85575C15.9748 5.64142 16.0952 5.35073 16.0952 5.04763Z" fill="black"/>
</svg>
