<svg width="21" height="20" viewBox="0 0 21 20" fill="none" xmlns="http://www.w3.org/2000/svg">
<mask id="mask0_10_49" style="mask-type:alpha" maskUnits="userSpaceOnUse" x="0" y="0" width="21" height="20">
<rect x="0.857178" width="20" height="20" fill="#D9D9D9"/>
</mask>
<g mask="url(#mask0_10_49)">
<path d="M5.73214 14.25C6.44047 13.7084 7.23214 13.2813 8.10714 12.9688C8.98214 12.6563 9.8988 12.5 10.8571 12.5C11.8155 12.5 12.7321 12.6563 13.6071 12.9688C14.4821 13.2813 15.2738 13.7084 15.9821 14.25C16.4682 13.6806 16.8467 13.0347 17.1176 12.3125C17.3884 11.5903 17.5238 10.8195 17.5238 10C17.5238 8.1528 16.8745 6.57988 15.5759 5.28127C14.2773 3.98266 12.7044 3.33335 10.8571 3.33335C9.00992 3.33335 7.437 3.98266 6.13839 5.28127C4.83978 6.57988 4.19047 8.1528 4.19047 10C4.19047 10.8195 4.32589 11.5903 4.59672 12.3125C4.86755 13.0347 5.24603 13.6806 5.73214 14.25ZM10.8571 10.8334C10.0377 10.8334 9.34672 10.5521 8.78422 9.9896C8.22172 9.4271 7.94047 8.73613 7.94047 7.91669C7.94047 7.09724 8.22172 6.40627 8.78422 5.84377C9.34672 5.28127 10.0377 5.00002 10.8571 5.00002C11.6766 5.00002 12.3676 5.28127 12.9301 5.84377C13.4926 6.40627 13.7738 7.09724 13.7738 7.91669C13.7738 8.73613 13.4926 9.4271 12.9301 9.9896C12.3676 10.5521 11.6766 10.8334 10.8571 10.8334ZM10.8571 18.3334C9.70436 18.3334 8.62103 18.1146 7.60714 17.6771C6.59325 17.2396 5.7113 16.6459 4.9613 15.8959C4.2113 15.1459 3.61755 14.2639 3.18005 13.25C2.74255 12.2361 2.5238 11.1528 2.5238 10C2.5238 8.84724 2.74255 7.76391 3.18005 6.75002C3.61755 5.73613 4.2113 4.85419 4.9613 4.10419C5.7113 3.35419 6.59325 2.76044 7.60714 2.32294C8.62103 1.88544 9.70436 1.66669 10.8571 1.66669C12.0099 1.66669 13.0932 1.88544 14.1071 2.32294C15.121 2.76044 16.003 3.35419 16.753 4.10419C17.503 4.85419 18.0967 5.73613 18.5342 6.75002C18.9717 7.76391 19.1905 8.84724 19.1905 10C19.1905 11.1528 18.9717 12.2361 18.5342 13.25C18.0967 14.2639 17.503 15.1459 16.753 15.8959C16.003 16.6459 15.121 17.2396 14.1071 17.6771C13.0932 18.1146 12.0099 18.3334 10.8571 18.3334ZM10.8571 16.6667C11.5932 16.6667 12.2877 16.559 12.9405 16.3438C13.5932 16.1285 14.1905 15.8195 14.7321 15.4167C14.1905 15.0139 13.5932 14.7049 12.9405 14.4896C12.2877 14.2743 11.5932 14.1667 10.8571 14.1667C10.121 14.1667 9.42658 14.2743 8.7738 14.4896C8.12103 14.7049 7.5238 15.0139 6.98214 15.4167C7.5238 15.8195 8.12103 16.1285 8.7738 16.3438C9.42658 16.559 10.121 16.6667 10.8571 16.6667ZM10.8571 9.16669C11.2182 9.16669 11.5169 9.04863 11.753 8.81252C11.9891 8.57641 12.1071 8.2778 12.1071 7.91669C12.1071 7.55558 11.9891 7.25697 11.753 7.02085C11.5169 6.78474 11.2182 6.66669 10.8571 6.66669C10.496 6.66669 10.1974 6.78474 9.9613 7.02085C9.72519 7.25697 9.60714 7.55558 9.60714 7.91669C9.60714 8.2778 9.72519 8.57641 9.9613 8.81252C10.1974 9.04863 10.496 9.16669 10.8571 9.16669Z" fill="#101920"/>
</g>
</svg>
