<svg width="225" height="50" viewBox="0 0 225 50" fill="none" xmlns="http://www.w3.org/2000/svg">
<g id="CH VENUE">
<mask id="path-1-outside-1_1_186" maskUnits="userSpaceOnUse" x="0" y="0" width="225" height="50" fill="black">
<rect fill="white" width="225" height="50"/>
<path d="M14.1727 48.5364C10.7745 48.5364 8.10182 47.8682 6.15455 46.5318C4.24545 45.1955 2.90909 43.3818 2.14545 41.0909C1.38182 38.7618 1 36.0891 1 33.0727V16.5209C1 13.3518 1.38182 10.6027 2.14545 8.27364C2.90909 5.94455 4.24545 4.15 6.15455 2.89C8.10182 1.63 10.7745 1 14.1727 1C17.38 1 19.8809 1.55364 21.6755 2.66091C23.5082 3.73 24.8064 5.27637 25.57 7.3C26.3336 9.32364 26.7155 11.6718 26.7155 14.3445V18.2391H18.5827V14.23C18.5827 12.9318 18.5064 11.7482 18.3536 10.6791C18.2391 9.61 17.8764 8.77 17.2655 8.15909C16.6927 7.51 15.6809 7.18546 14.23 7.18546C12.7791 7.18546 11.71 7.52909 11.0227 8.21637C10.3736 8.86546 9.95364 9.76273 9.76273 10.9082C9.57182 12.0155 9.47636 13.2755 9.47636 14.6882V34.8482C9.47636 36.5282 9.61 37.9218 9.87727 39.0291C10.1445 40.0982 10.6218 40.9191 11.3091 41.4918C12.0345 42.0264 13.0082 42.2936 14.23 42.2936C15.6427 42.2936 16.6355 41.9691 17.2082 41.32C17.8191 40.6327 18.2009 39.7355 18.3536 38.6282C18.5064 37.5209 18.5827 36.28 18.5827 34.9055V30.7245H26.7155V34.4473C26.7155 37.1964 26.3527 39.64 25.6273 41.7782C24.9018 43.8782 23.6227 45.5391 21.79 46.7609C19.9955 47.9445 17.4564 48.5364 14.1727 48.5364Z"/>
<path d="M33.5904 47.9064V1.51545H42.0095V20.9309H51.4595V1.51545H59.9359V47.9064H51.4595V26.9445H42.0095V47.9064H33.5904Z"/>
<path d="M89.7808 47.9064L80.4453 1.51545H87.9481L94.0762 34.3327L99.8035 1.51545H107.478L98.1426 47.9064H89.7808Z"/>
<path d="M113.069 47.9064V1.51545H132.542V7.47182H121.546V20.8164H130.194V26.7155H121.546V42.0645H132.657V47.9064H113.069Z"/>
<path d="M138.426 47.9064V1.51545H144.325L155.608 27.9755V1.51545H162.595V47.9064H156.982L145.642 20.1864V47.9064H138.426Z"/>
<path d="M183.209 48.5364C179.772 48.5364 177.1 47.9064 175.191 46.6464C173.281 45.3864 171.964 43.5918 171.239 41.2627C170.513 38.9336 170.151 36.1464 170.151 32.9009V1.51545H178.398V33.8745C178.398 35.3255 178.493 36.7 178.684 37.9982C178.875 39.2582 179.314 40.2891 180.001 41.0909C180.727 41.8545 181.796 42.2364 183.209 42.2364C184.698 42.2364 185.767 41.8545 186.416 41.0909C187.103 40.2891 187.542 39.2582 187.733 37.9982C187.962 36.7 188.077 35.3255 188.077 33.8745V1.51545H196.267V32.9009C196.267 36.1464 195.904 38.9336 195.179 41.2627C194.453 43.5918 193.136 45.3864 191.227 46.6464C189.356 47.9064 186.683 48.5364 183.209 48.5364Z"/>
<path d="M203.793 47.9064V1.51545H223.266V7.47182H212.269V20.8164H220.917V26.7155H212.269V42.0645H223.38V47.9064H203.793Z"/>
</mask>
<path d="M14.1727 48.5364C10.7745 48.5364 8.10182 47.8682 6.15455 46.5318C4.24545 45.1955 2.90909 43.3818 2.14545 41.0909C1.38182 38.7618 1 36.0891 1 33.0727V16.5209C1 13.3518 1.38182 10.6027 2.14545 8.27364C2.90909 5.94455 4.24545 4.15 6.15455 2.89C8.10182 1.63 10.7745 1 14.1727 1C17.38 1 19.8809 1.55364 21.6755 2.66091C23.5082 3.73 24.8064 5.27637 25.57 7.3C26.3336 9.32364 26.7155 11.6718 26.7155 14.3445V18.2391H18.5827V14.23C18.5827 12.9318 18.5064 11.7482 18.3536 10.6791C18.2391 9.61 17.8764 8.77 17.2655 8.15909C16.6927 7.51 15.6809 7.18546 14.23 7.18546C12.7791 7.18546 11.71 7.52909 11.0227 8.21637C10.3736 8.86546 9.95364 9.76273 9.76273 10.9082C9.57182 12.0155 9.47636 13.2755 9.47636 14.6882V34.8482C9.47636 36.5282 9.61 37.9218 9.87727 39.0291C10.1445 40.0982 10.6218 40.9191 11.3091 41.4918C12.0345 42.0264 13.0082 42.2936 14.23 42.2936C15.6427 42.2936 16.6355 41.9691 17.2082 41.32C17.8191 40.6327 18.2009 39.7355 18.3536 38.6282C18.5064 37.5209 18.5827 36.28 18.5827 34.9055V30.7245H26.7155V34.4473C26.7155 37.1964 26.3527 39.64 25.6273 41.7782C24.9018 43.8782 23.6227 45.5391 21.79 46.7609C19.9955 47.9445 17.4564 48.5364 14.1727 48.5364Z" fill="white"/>
<path d="M33.5904 47.9064V1.51545H42.0095V20.9309H51.4595V1.51545H59.9359V47.9064H51.4595V26.9445H42.0095V47.9064H33.5904Z" fill="white"/>
<path d="M89.7808 47.9064L80.4453 1.51545H87.9481L94.0762 34.3327L99.8035 1.51545H107.478L98.1426 47.9064H89.7808Z" fill="white"/>
<path d="M113.069 47.9064V1.51545H132.542V7.47182H121.546V20.8164H130.194V26.7155H121.546V42.0645H132.657V47.9064H113.069Z" fill="white"/>
<path d="M138.426 47.9064V1.51545H144.325L155.608 27.9755V1.51545H162.595V47.9064H156.982L145.642 20.1864V47.9064H138.426Z" fill="white"/>
<path d="M183.209 48.5364C179.772 48.5364 177.1 47.9064 175.191 46.6464C173.281 45.3864 171.964 43.5918 171.239 41.2627C170.513 38.9336 170.151 36.1464 170.151 32.9009V1.51545H178.398V33.8745C178.398 35.3255 178.493 36.7 178.684 37.9982C178.875 39.2582 179.314 40.2891 180.001 41.0909C180.727 41.8545 181.796 42.2364 183.209 42.2364C184.698 42.2364 185.767 41.8545 186.416 41.0909C187.103 40.2891 187.542 39.2582 187.733 37.9982C187.962 36.7 188.077 35.3255 188.077 33.8745V1.51545H196.267V32.9009C196.267 36.1464 195.904 38.9336 195.179 41.2627C194.453 43.5918 193.136 45.3864 191.227 46.6464C189.356 47.9064 186.683 48.5364 183.209 48.5364Z" fill="white"/>
<path d="M203.793 47.9064V1.51545H223.266V7.47182H212.269V20.8164H220.917V26.7155H212.269V42.0645H223.38V47.9064H203.793Z" fill="white"/>
<path d="M14.1727 48.5364C10.7745 48.5364 8.10182 47.8682 6.15455 46.5318C4.24545 45.1955 2.90909 43.3818 2.14545 41.0909C1.38182 38.7618 1 36.0891 1 33.0727V16.5209C1 13.3518 1.38182 10.6027 2.14545 8.27364C2.90909 5.94455 4.24545 4.15 6.15455 2.89C8.10182 1.63 10.7745 1 14.1727 1C17.38 1 19.8809 1.55364 21.6755 2.66091C23.5082 3.73 24.8064 5.27637 25.57 7.3C26.3336 9.32364 26.7155 11.6718 26.7155 14.3445V18.2391H18.5827V14.23C18.5827 12.9318 18.5064 11.7482 18.3536 10.6791C18.2391 9.61 17.8764 8.77 17.2655 8.15909C16.6927 7.51 15.6809 7.18546 14.23 7.18546C12.7791 7.18546 11.71 7.52909 11.0227 8.21637C10.3736 8.86546 9.95364 9.76273 9.76273 10.9082C9.57182 12.0155 9.47636 13.2755 9.47636 14.6882V34.8482C9.47636 36.5282 9.61 37.9218 9.87727 39.0291C10.1445 40.0982 10.6218 40.9191 11.3091 41.4918C12.0345 42.0264 13.0082 42.2936 14.23 42.2936C15.6427 42.2936 16.6355 41.9691 17.2082 41.32C17.8191 40.6327 18.2009 39.7355 18.3536 38.6282C18.5064 37.5209 18.5827 36.28 18.5827 34.9055V30.7245H26.7155V34.4473C26.7155 37.1964 26.3527 39.64 25.6273 41.7782C24.9018 43.8782 23.6227 45.5391 21.79 46.7609C19.9955 47.9445 17.4564 48.5364 14.1727 48.5364Z" stroke="black" stroke-width="2" mask="url(#path-1-outside-1_1_186)"/>
<path d="M33.5904 47.9064V1.51545H42.0095V20.9309H51.4595V1.51545H59.9359V47.9064H51.4595V26.9445H42.0095V47.9064H33.5904Z" stroke="black" stroke-width="2" mask="url(#path-1-outside-1_1_186)"/>
<path d="M89.7808 47.9064L80.4453 1.51545H87.9481L94.0762 34.3327L99.8035 1.51545H107.478L98.1426 47.9064H89.7808Z" stroke="black" stroke-width="2" mask="url(#path-1-outside-1_1_186)"/>
<path d="M113.069 47.9064V1.51545H132.542V7.47182H121.546V20.8164H130.194V26.7155H121.546V42.0645H132.657V47.9064H113.069Z" stroke="black" stroke-width="2" mask="url(#path-1-outside-1_1_186)"/>
<path d="M138.426 47.9064V1.51545H144.325L155.608 27.9755V1.51545H162.595V47.9064H156.982L145.642 20.1864V47.9064H138.426Z" stroke="black" stroke-width="2" mask="url(#path-1-outside-1_1_186)"/>
<path d="M183.209 48.5364C179.772 48.5364 177.1 47.9064 175.191 46.6464C173.281 45.3864 171.964 43.5918 171.239 41.2627C170.513 38.9336 170.151 36.1464 170.151 32.9009V1.51545H178.398V33.8745C178.398 35.3255 178.493 36.7 178.684 37.9982C178.875 39.2582 179.314 40.2891 180.001 41.0909C180.727 41.8545 181.796 42.2364 183.209 42.2364C184.698 42.2364 185.767 41.8545 186.416 41.0909C187.103 40.2891 187.542 39.2582 187.733 37.9982C187.962 36.7 188.077 35.3255 188.077 33.8745V1.51545H196.267V32.9009C196.267 36.1464 195.904 38.9336 195.179 41.2627C194.453 43.5918 193.136 45.3864 191.227 46.6464C189.356 47.9064 186.683 48.5364 183.209 48.5364Z" stroke="black" stroke-width="2" mask="url(#path-1-outside-1_1_186)"/>
<path d="M203.793 47.9064V1.51545H223.266V7.47182H212.269V20.8164H220.917V26.7155H212.269V42.0645H223.38V47.9064H203.793Z" stroke="black" stroke-width="2" mask="url(#path-1-outside-1_1_186)"/>
</g>
</svg>
