<svg width="98" height="22" viewBox="0 0 98 22" fill="none" xmlns="http://www.w3.org/2000/svg">
<path d="M6.47504 21.275C4.99171 21.275 3.82504 20.9833 2.97504 20.4C2.14171 19.8167 1.55838 19.025 1.22504 18.025C0.891709 17.0083 0.725042 15.8417 0.725042 14.525V7.29999C0.725042 5.91666 0.891709 4.71666 1.22504 3.69999C1.55838 2.68333 2.14171 1.89999 2.97504 1.34999C3.82504 0.799991 4.99171 0.524991 6.47504 0.524991C7.87504 0.524991 8.96671 0.766658 9.75004 1.24999C10.55 1.71666 11.1167 2.39166 11.45 3.27499C11.7834 4.15832 11.95 5.18333 11.95 6.34999V8.04999H8.40004V6.29999C8.40004 5.73333 8.36671 5.21666 8.30004 4.74999C8.25004 4.28332 8.09171 3.91666 7.82504 3.64999C7.57504 3.36666 7.13338 3.22499 6.50004 3.22499C5.86671 3.22499 5.40004 3.37499 5.10004 3.67499C4.81671 3.95832 4.63338 4.34999 4.55004 4.84999C4.46671 5.33332 4.42504 5.88332 4.42504 6.49999V15.3C4.42504 16.0333 4.48338 16.6417 4.60004 17.125C4.71671 17.5917 4.92504 17.95 5.22504 18.2C5.54171 18.4333 5.96671 18.55 6.50004 18.55C7.11671 18.55 7.55004 18.4083 7.80004 18.125C8.06671 17.825 8.23338 17.4333 8.30004 16.95C8.36671 16.4667 8.40004 15.925 8.40004 15.325V13.5H11.95V15.125C11.95 16.325 11.7917 17.3917 11.475 18.325C11.1584 19.2417 10.6 19.9667 9.80004 20.5C9.01671 21.0167 7.90838 21.275 6.47504 21.275ZM14.951 21V0.749991H18.626V9.22499H22.751V0.749991H26.451V21H22.751V11.85H18.626V21H14.951ZM39.4786 21L35.4036 0.749991H38.6786L41.3536 15.075L43.8536 0.749991H47.2036L43.1286 21H39.4786ZM49.6442 21V0.749991H58.1442V3.34999H53.3442V9.17499H57.1192V11.75H53.3442V18.45H58.1942V21H49.6442ZM60.7125 21V0.749991H63.2875L68.2125 12.3V0.749991H71.2625V21H68.8125L63.8625 8.89999V21H60.7125ZM80.2606 21.275C78.7606 21.275 77.5939 21 76.7606 20.45C75.9273 19.9 75.3523 19.1167 75.0356 18.1C74.7189 17.0833 74.5606 15.8667 74.5606 14.45V0.749991H78.1606V14.875C78.1606 15.5083 78.2023 16.1083 78.2856 16.675C78.3689 17.225 78.5606 17.675 78.8606 18.025C79.1773 18.3583 79.6439 18.525 80.2606 18.525C80.9106 18.525 81.3773 18.3583 81.6606 18.025C81.9606 17.675 82.1523 17.225 82.2356 16.675C82.3356 16.1083 82.3856 15.5083 82.3856 14.875V0.749991H85.9606V14.45C85.9606 15.8667 85.8023 17.0833 85.4856 18.1C85.1689 19.1167 84.5939 19.9 83.7606 20.45C82.9439 21 81.7773 21.275 80.2606 21.275ZM89.2457 21V0.749991H97.7457V3.34999H92.9457V9.17499H96.7207V11.75H92.9457V18.45H97.7957V21H89.2457Z" fill="white"/>
</svg>
