<svg width="22" height="22" viewBox="0 0 22 22" fill="none" xmlns="http://www.w3.org/2000/svg">
<path fill-rule="evenodd" clip-rule="evenodd" d="M16.624 15.46L20.0785 19C20.5274 19.46 20.5274 20.2 20.059 20.66C19.8443 20.88 19.5515 21 19.2588 21C18.966 21 18.6733 20.88 18.4586 20.66L14.8675 16.98C13.6184 17.78 12.1351 18.26 10.5347 18.26C6.02634 18.26 2.35718 14.5 2.35718 9.88C2.35718 5.26 6.02634 1.5 10.5347 1.5C15.0431 1.5 18.7123 5.26 18.7123 9.88C18.7123 12.02 17.9121 13.98 16.624 15.46ZM10.5348 3.84C7.27545 3.84 4.64068 6.56 4.64068 9.88C4.64068 13.22 7.29497 15.92 10.5348 15.92C13.7746 15.92 16.4093 13.2 16.4093 9.88C16.4093 6.56 13.7941 3.84 10.5348 3.84Z" fill="black"/>
</svg>
