<svg width="21" height="20" viewBox="0 0 21 20" fill="none" xmlns="http://www.w3.org/2000/svg">
<path d="M6.90862 18.0953C14.4558 18.0953 18.5838 11.8658 18.5838 6.46367C18.5838 6.28673 18.5838 6.11059 18.5718 5.93525C19.3749 5.35655 20.0681 4.64001 20.619 3.81918C19.8701 4.14979 19.0757 4.36659 18.2622 4.46237C19.1188 3.95147 19.7599 3.14792 20.0662 2.20125C19.2607 2.67743 18.3795 3.01302 17.4606 3.19353C16.1887 1.8461 14.1676 1.51631 12.5307 2.38909C10.8937 3.26187 10.048 5.12017 10.4678 6.92195C7.16854 6.75717 4.0946 5.20465 2.01102 2.65076C0.921917 4.51868 1.47821 6.90829 3.28142 8.1079C2.62841 8.08862 1.98964 7.91313 1.41902 7.59622C1.41902 7.61296 1.41902 7.6305 1.41902 7.64803C1.41955 9.59401 2.79642 11.2701 4.71102 11.6554C4.10691 11.8195 3.47308 11.8435 2.85822 11.7255C3.39578 13.3908 4.93628 14.5317 6.69182 14.5645C5.23881 15.7022 3.44387 16.3198 1.59582 16.3179C1.26934 16.3173 0.943182 16.2976 0.619019 16.2589C2.49553 17.4587 4.67895 18.095 6.90862 18.0921" fill="black"/>
</svg>
